<?xml version="1.0" encoding="UTF-8"?>
<svg id="SVGRoot" width="1920px" height="1920px" version="1.1" viewBox="0 0 1920 1920" xml:space="preserve" xmlns="http://www.w3.org/2000/svg"><g transform="translate(.47328 -.18394)"><g transform="translate(0,-10)" stroke="#000" stroke-opacity=".20259" style="paint-order:normal"><path d="m520.74 1223.7 43.93 351.57h483.23c274.88 0 420.74-117.18 437.63-351.53h-466.49c-0.028 0-0.042-0.021-0.051-0.041z" fill="#fe0000" stroke="#000" stroke-linecap="round" stroke-linejoin="round" stroke-opacity="1" stroke-width="40" style="paint-order:normal"/></g><g transform="translate(-658.91 -571.53)"><path d="m1530.4 926.65c-277.34 0-423.36 117.19-438.06 351.55h454.8c170.12 0.031 340.28 0.016 510.42 0.016l-43.93-351.57z" fill="#fe0000" stroke="#000" stroke-linecap="round" stroke-linejoin="round" stroke-width="40" style="paint-order:normal"/></g><g transform="translate(3.4741 -1.158)"><path d="m885.3 785.25v0.0527c0 0.0289-0.029 0.0527-0.0644 0.0527h-454.38c16.903 234.31 162.78 351.46 437.63 351.46h175.72c2.9923 0 5.5765 0.1874 8.4159 0.2577h429.57c-14.63-234.5-160.56-351.82-437.99-351.82z" fill="#f00" stroke="#000" stroke-linecap="round" stroke-linejoin="round" stroke-width="40" style="paint-order:normal"/></g></g></svg>
